<svg width="150" height="150" viewBox="0 0 150 150" fill="none" xmlns="http://www.w3.org/2000/svg">
<path d="M78 56.0656C78 57.7225 76.6569 59.0656 75 59.0656C73.3431 59.0656 72 57.7225 72 56.0656C72 54.4088 73.3431 53.0656 75 53.0656C76.6569 53.0656 78 54.4088 78 56.0656Z" fill="#D72727"/>
<path d="M84.627 25C93.3587 25 101.435 27.7998 108.013 32.5479C99.2057 40.2972 87.653 45 75 45C62.1868 45 50.5011 40.1783 41.6533 32.2529C48.1545 27.6836 56.077 25 64.627 25H84.627Z" fill="#B0B0B0"/>
<path fill-rule="evenodd" clip-rule="evenodd" d="M84.627 25C105.053 25 121.901 40.3109 124.325 60.082C125.954 57.7406 128.609 56.1662 131.64 56.0127L132.128 56C137.749 56 142.141 60.8532 141.582 66.4463L140.908 73.1895C140.724 75.036 140.986 76.9001 141.673 78.624L143.416 82.999L143.613 83.5264C147.396 94.3892 133.524 102.817 125.627 94.4531L125.25 94.0352C124.76 93.4677 124.335 92.8537 123.977 92.2061C120.643 110.53 104.828 124.502 85.6592 124.987L84.627 125H64.627L63.5948 124.987C44.6844 124.508 29.0365 110.905 25.417 92.9453C25.0315 93.6895 24.5596 94.3921 24.0039 95.0352L23.627 95.4531C15.73 103.817 1.85765 95.3892 5.64066 84.5264L5.83793 83.999L7.58109 79.624C8.26806 77.9001 8.53039 76.036 8.34574 74.1895L7.67191 67.4463C7.1128 61.8532 11.505 57 17.126 57L17.6143 57.0127C20.5845 57.1631 23.1944 58.6779 24.8311 60.9424C26.8647 40.7568 43.9053 25 64.627 25H84.627ZM64.627 27.5C43.9163 27.5 27.127 44.2893 27.127 65V85C27.127 105.711 43.9163 122.5 64.627 122.5H84.627C105.338 122.5 122.127 105.711 122.127 85V65C122.127 44.2893 105.338 27.5 84.627 27.5H64.627ZM17.126 59.5C12.9839 59.5 9.74707 63.0767 10.1592 67.1982L10.834 73.9404C11.0586 76.1859 10.7387 78.4525 9.90336 80.5488L8.16019 84.9248C4.70497 93.5962 16.0093 100.463 22.1123 93.4004C23.4116 91.8967 24.127 89.9755 24.127 87.9883V66.501C24.1268 62.6345 20.9925 59.5001 17.126 59.5ZM132.128 58.5C128.262 58.5002 125.127 61.6345 125.127 65.501V86.9883C125.127 88.9755 125.842 90.8967 127.142 92.4004C133.245 99.4633 144.549 92.5962 141.094 83.9248L139.351 79.5488C138.515 77.4525 138.195 75.1859 138.42 72.9404L139.095 66.1982C139.507 62.0767 136.27 58.5 132.128 58.5Z" fill="black"/>
<path d="M24.627 97.5C24.627 102.194 20.8214 106 16.127 106C11.4326 106 7.627 102.194 7.627 97.5C7.627 92.8056 11.4326 89 16.127 89C20.8214 89 24.627 92.8056 24.627 97.5Z" fill="#FFCD4E"/>
<path d="M124.627 97.5C124.627 102.194 128.433 106 133.127 106C137.821 106 141.627 102.194 141.627 97.5C141.627 92.8056 137.821 89 133.127 89C128.433 89 124.627 92.8056 124.627 97.5Z" fill="#FFCD4E"/>
<path d="M47 74.75C53.3682 79.2153 56.8728 79.2659 63 74.75" stroke="black" stroke-width="2.5"/>
<path d="M87 75C93.3682 79.4653 96.8728 79.5159 103 75" stroke="black" stroke-width="2.5"/>
<path d="M75 104L62.0096 96.5H87.9904L75 104Z" fill="black"/>
</svg>
